<?xml version="1.0" standalone="no"?>
<!DOCTYPE svg PUBLIC "-//W3C//DTD SVG 20010904//EN"
 "http://www.w3.org/TR/2001/REC-SVG-20010904/DTD/svg10.dtd">
<svg version="1.0" xmlns="http://www.w3.org/2000/svg"
 width="448.000000pt" height="448.000000pt" viewBox="0 0 448.000000 448.000000"
 preserveAspectRatio="xMidYMid meet">
<metadata>
Created by potrace 1.11, written by Peter Selinger 2001-2013
</metadata>
<g transform="translate(0.000000,448.000000) scale(0.100000,-0.100000)"
fill="#000000" stroke="none">
<path d="M2020 4384 c-345 -41 -697 -166 -965 -342 -238 -156 -493 -416 -634
-646 -147 -240 -247 -498 -291 -754 -17 -95 -20 -161 -20 -391 0 -279 8 -359
50 -516 6 -22 16 -60 22 -85 11 -47 102 -280 136 -346 43 -87 95 -180 108
-195 8 -8 14 -19 14 -23 0 -4 39 -59 86 -122 305 -405 709 -680 1205 -819 212
-59 303 -70 579 -69 259 0 335 9 550 64 188 49 459 169 625 278 238 156 493
416 634 646 147 240 247 498 291 754 17 95 20 161 20 391 0 277 -9 365 -49
511 -6 19 -17 61 -25 92 -14 56 -101 279 -136 348 -42 83 -94 176 -106 191 -8
8 -14 19 -14 23 0 4 -40 60 -90 126 -306 405 -707 677 -1201 815 -198 55 -289
67 -534 70 -121 2 -236 1 -255 -1z m425 -409 c78 -26 139 -62 205 -120 31 -28
44 -33 111 -38 83 -6 187 -44 262 -95 144 -100 231 -269 230 -447 0 -98 -20
-175 -66 -257 -70 -125 -172 -205 -347 -273 -52 -20 -122 -47 -155 -60 -188
-73 -504 -194 -530 -202 -38 -12 -67 -81 -130 -301 -68 -236 -89 -392 -90
-662 0 -282 13 -409 66 -630 17 -70 78 -264 104 -331 5 -12 -2 -19 -24 -27
-29 -10 -32 -9 -45 17 -56 108 -146 477 -166 678 -15 150 -12 443 5 583 27
214 94 479 163 641 19 43 19 45 0 89 -19 43 -154 374 -260 638 -62 154 -82
245 -73 331 26 243 195 431 437 486 88 20 207 12 303 -20z"/>
<path d="M2140 3851 c-82 -28 -120 -50 -172 -102 -88 -88 -134 -222 -117 -341
7 -42 160 -440 270 -698 l11 -25 20 39 c11 21 56 120 100 220 44 99 88 199 98
221 51 113 228 513 234 529 5 14 -4 29 -37 60 -106 101 -274 141 -407 97z"/>
<path d="M2651 3663 c-15 -30 -441 -992 -441 -998 0 -12 35 0 333 116 409 159
414 162 489 261 147 194 79 481 -139 591 -90 46 -224 62 -242 30z"/>
</g>
</svg>
